<mxfile host="app.diagrams.net" modified="2023-06-22T09:58:19.165Z" agent="Mozilla/5.0 (Windows NT 10.0; Win64; x64) AppleWebKit/537.36 (KHTML, like Gecko) Chrome/114.0.0.0 Safari/537.36" etag="_VDibnThH_z5194IB7Ec" version="21.5.0" type="github">
  <diagram name="페이지-1" id="NF0ddqCpsUM59Y-acMz2">
    <mxGraphModel dx="1195" dy="-95" grid="1" gridSize="10" guides="1" tooltips="1" connect="1" arrows="1" fold="1" page="0" pageScale="1" pageWidth="827" pageHeight="1169" background="#ffffff" math="0" shadow="0">
      <root>
        <mxCell id="0" />
        <mxCell id="1" parent="0" />
        <mxCell id="zTI_1WKN3sGvDMDGRpj2-1" value="Spawn" style="rounded=1;whiteSpace=wrap;html=1;" vertex="1" parent="1">
          <mxGeometry x="520.0000000000001" y="1060" width="120" height="60" as="geometry" />
        </mxCell>
        <mxCell id="zTI_1WKN3sGvDMDGRpj2-2" value="순찰" style="rounded=0;whiteSpace=wrap;html=1;fontSize=16;" vertex="1" parent="1">
          <mxGeometry x="520" y="1370" width="120" height="60" as="geometry" />
        </mxCell>
        <mxCell id="zTI_1WKN3sGvDMDGRpj2-3" value="순찰" style="rounded=0;whiteSpace=wrap;html=1;fontSize=16;" vertex="1" parent="1">
          <mxGeometry x="520" y="1370" width="120" height="60" as="geometry" />
        </mxCell>
        <mxCell id="zTI_1WKN3sGvDMDGRpj2-4" value="추적" style="rounded=0;whiteSpace=wrap;html=1;fontSize=16;" vertex="1" parent="1">
          <mxGeometry x="780" y="1210" width="120" height="60" as="geometry" />
        </mxCell>
        <mxCell id="zTI_1WKN3sGvDMDGRpj2-5" value="추적" style="rounded=0;whiteSpace=wrap;html=1;fontSize=16;" vertex="1" parent="1">
          <mxGeometry x="780" y="1210" width="120" height="60" as="geometry" />
        </mxCell>
        <mxCell id="zTI_1WKN3sGvDMDGRpj2-6" value="플레이어 식별 성공&amp;nbsp;" style="text;html=1;strokeColor=none;fillColor=none;align=center;verticalAlign=middle;whiteSpace=wrap;rounded=0;fontSize=16;" vertex="1" parent="1">
          <mxGeometry x="650" y="1169" width="114" height="57" as="geometry" />
        </mxCell>
        <mxCell id="zTI_1WKN3sGvDMDGRpj2-7" value="플레이어 식별 실패&amp;nbsp;" style="text;html=1;strokeColor=none;fillColor=none;align=center;verticalAlign=middle;whiteSpace=wrap;rounded=0;fontSize=16;" vertex="1" parent="1">
          <mxGeometry x="650" y="1260" width="114" height="57" as="geometry" />
        </mxCell>
        <mxCell id="zTI_1WKN3sGvDMDGRpj2-8" value="플레이어 식별 실패&amp;nbsp;" style="text;html=1;strokeColor=none;fillColor=none;align=center;verticalAlign=middle;whiteSpace=wrap;rounded=0;fontSize=16;" vertex="1" parent="1">
          <mxGeometry x="650" y="1260" width="114" height="57" as="geometry" />
        </mxCell>
        <mxCell id="zTI_1WKN3sGvDMDGRpj2-9" value="공격 사거리 안" style="text;html=1;strokeColor=none;fillColor=none;align=center;verticalAlign=middle;whiteSpace=wrap;rounded=0;fontSize=16;" vertex="1" parent="1">
          <mxGeometry x="910" y="1169" width="114" height="57" as="geometry" />
        </mxCell>
        <mxCell id="zTI_1WKN3sGvDMDGRpj2-10" value="쿨타임 대기" style="rounded=0;whiteSpace=wrap;html=1;fontSize=16;" vertex="1" parent="1">
          <mxGeometry x="1040" y="1370" width="120" height="60" as="geometry" />
        </mxCell>
        <mxCell id="zTI_1WKN3sGvDMDGRpj2-11" value="쿨타임 대기" style="rounded=0;whiteSpace=wrap;html=1;fontSize=16;" vertex="1" parent="1">
          <mxGeometry x="1040" y="1370" width="120" height="60" as="geometry" />
        </mxCell>
        <mxCell id="zTI_1WKN3sGvDMDGRpj2-12" value="공격" style="rounded=0;whiteSpace=wrap;html=1;fontSize=16;" vertex="1" parent="1">
          <mxGeometry x="1040" y="1210" width="120" height="60" as="geometry" />
        </mxCell>
        <mxCell id="zTI_1WKN3sGvDMDGRpj2-13" value="공격" style="rounded=0;whiteSpace=wrap;html=1;fontSize=16;" vertex="1" parent="1">
          <mxGeometry x="1040" y="1210" width="120" height="60" as="geometry" />
        </mxCell>
        <mxCell id="zTI_1WKN3sGvDMDGRpj2-14" value="대기" style="rounded=0;whiteSpace=wrap;html=1;fontSize=16;" vertex="1" parent="1">
          <mxGeometry x="520" y="1210" width="120" height="60" as="geometry" />
        </mxCell>
        <mxCell id="zTI_1WKN3sGvDMDGRpj2-15" value="대기" style="rounded=0;whiteSpace=wrap;html=1;fontSize=16;" vertex="1" parent="1">
          <mxGeometry x="520" y="1210" width="120" height="60" as="geometry" />
        </mxCell>
        <mxCell id="zTI_1WKN3sGvDMDGRpj2-16" value="" style="shape=flexArrow;endArrow=classic;startArrow=classic;html=1;rounded=0;fontSize=12;startSize=8;endSize=8;curved=1;" edge="1" parent="1" source="zTI_1WKN3sGvDMDGRpj2-14" target="zTI_1WKN3sGvDMDGRpj2-2">
          <mxGeometry width="100" height="100" relative="1" as="geometry">
            <mxPoint x="490" y="1370" as="sourcePoint" />
            <mxPoint x="590" y="1270" as="targetPoint" />
          </mxGeometry>
        </mxCell>
        <mxCell id="zTI_1WKN3sGvDMDGRpj2-17" value="" style="shape=flexArrow;endArrow=classic;startArrow=classic;html=1;rounded=0;fontSize=12;startSize=8;endSize=8;curved=1;" edge="1" parent="1" source="zTI_1WKN3sGvDMDGRpj2-15" target="zTI_1WKN3sGvDMDGRpj2-3">
          <mxGeometry width="100" height="100" relative="1" as="geometry">
            <mxPoint x="490" y="1370" as="sourcePoint" />
            <mxPoint x="590" y="1270" as="targetPoint" />
          </mxGeometry>
        </mxCell>
        <mxCell id="zTI_1WKN3sGvDMDGRpj2-18" value="3초 후 다른 &lt;br&gt;방향으로 순찰" style="text;html=1;strokeColor=none;fillColor=none;align=center;verticalAlign=middle;whiteSpace=wrap;rounded=0;fontSize=16;" vertex="1" parent="1">
          <mxGeometry x="450" y="1307" width="110" height="30" as="geometry" />
        </mxCell>
        <mxCell id="zTI_1WKN3sGvDMDGRpj2-19" value="5초 동안&lt;br&gt;이동 후 대기" style="text;html=1;strokeColor=none;fillColor=none;align=center;verticalAlign=middle;whiteSpace=wrap;rounded=0;fontSize=16;" vertex="1" parent="1">
          <mxGeometry x="585" y="1307" width="100" height="30" as="geometry" />
        </mxCell>
        <mxCell id="zTI_1WKN3sGvDMDGRpj2-20" style="edgeStyle=none;curved=1;rounded=0;orthogonalLoop=1;jettySize=auto;html=1;exitX=0.5;exitY=1;exitDx=0;exitDy=0;fontSize=12;startSize=8;endSize=8;" edge="1" parent="1" source="zTI_1WKN3sGvDMDGRpj2-18" target="zTI_1WKN3sGvDMDGRpj2-18">
          <mxGeometry relative="1" as="geometry" />
        </mxCell>
        <mxCell id="zTI_1WKN3sGvDMDGRpj2-21" style="edgeStyle=none;curved=1;rounded=0;orthogonalLoop=1;jettySize=auto;html=1;exitX=0.5;exitY=1;exitDx=0;exitDy=0;fontSize=12;startSize=8;endSize=8;" edge="1" parent="1" source="zTI_1WKN3sGvDMDGRpj2-19" target="zTI_1WKN3sGvDMDGRpj2-19">
          <mxGeometry relative="1" as="geometry" />
        </mxCell>
        <mxCell id="zTI_1WKN3sGvDMDGRpj2-22" value="" style="shape=flexArrow;endArrow=classic;startArrow=classic;html=1;rounded=0;fontSize=12;startSize=8;endSize=8;curved=1;" edge="1" parent="1" source="zTI_1WKN3sGvDMDGRpj2-12" target="zTI_1WKN3sGvDMDGRpj2-10">
          <mxGeometry width="100" height="100" relative="1" as="geometry">
            <mxPoint x="1000" y="1500" as="sourcePoint" />
            <mxPoint x="1100" y="1400" as="targetPoint" />
          </mxGeometry>
        </mxCell>
        <mxCell id="zTI_1WKN3sGvDMDGRpj2-23" value="" style="shape=flexArrow;endArrow=classic;startArrow=classic;html=1;rounded=0;fontSize=12;startSize=8;endSize=8;curved=1;" edge="1" parent="1" source="zTI_1WKN3sGvDMDGRpj2-13" target="zTI_1WKN3sGvDMDGRpj2-11">
          <mxGeometry width="100" height="100" relative="1" as="geometry">
            <mxPoint x="1000" y="1500" as="sourcePoint" />
            <mxPoint x="1100" y="1400" as="targetPoint" />
          </mxGeometry>
        </mxCell>
        <mxCell id="zTI_1WKN3sGvDMDGRpj2-24" value="쿨타임" style="text;html=1;strokeColor=none;fillColor=none;align=center;verticalAlign=middle;whiteSpace=wrap;rounded=0;fontSize=16;" vertex="1" parent="1">
          <mxGeometry x="1120" y="1307" width="60" height="30" as="geometry" />
        </mxCell>
        <mxCell id="zTI_1WKN3sGvDMDGRpj2-25" value="공격 사거리 밖" style="text;html=1;strokeColor=none;fillColor=none;align=center;verticalAlign=middle;whiteSpace=wrap;rounded=0;fontSize=16;" vertex="1" parent="1">
          <mxGeometry x="857" y="1350" width="114" height="57" as="geometry" />
        </mxCell>
        <mxCell id="zTI_1WKN3sGvDMDGRpj2-26" value="공격 사거리 밖" style="text;html=1;strokeColor=none;fillColor=none;align=center;verticalAlign=middle;whiteSpace=wrap;rounded=0;fontSize=16;" vertex="1" parent="1">
          <mxGeometry x="857" y="1350" width="114" height="57" as="geometry" />
        </mxCell>
        <mxCell id="zTI_1WKN3sGvDMDGRpj2-27" value="플레이어 식별 성공&amp;nbsp;" style="text;html=1;strokeColor=none;fillColor=none;align=center;verticalAlign=middle;whiteSpace=wrap;rounded=0;fontSize=16;" vertex="1" parent="1">
          <mxGeometry x="708" y="1350" width="114" height="57" as="geometry" />
        </mxCell>
        <mxCell id="zTI_1WKN3sGvDMDGRpj2-28" value="플레이어 식별 성공&amp;nbsp;" style="text;html=1;strokeColor=none;fillColor=none;align=center;verticalAlign=middle;whiteSpace=wrap;rounded=0;fontSize=16;" vertex="1" parent="1">
          <mxGeometry x="708" y="1350" width="114" height="57" as="geometry" />
        </mxCell>
        <mxCell id="zTI_1WKN3sGvDMDGRpj2-29" value="" style="shape=flexArrow;endArrow=classic;html=1;rounded=0;fontSize=12;startSize=8;endSize=8;curved=1;exitX=1;exitY=0.5;exitDx=0;exitDy=0;entryX=0.5;entryY=1;entryDx=0;entryDy=0;" edge="1" parent="1" source="zTI_1WKN3sGvDMDGRpj2-2" target="zTI_1WKN3sGvDMDGRpj2-4">
          <mxGeometry width="50" height="50" relative="1" as="geometry">
            <mxPoint x="765" y="1360" as="sourcePoint" />
            <mxPoint x="815" y="1310" as="targetPoint" />
          </mxGeometry>
        </mxCell>
        <mxCell id="zTI_1WKN3sGvDMDGRpj2-30" value="" style="shape=flexArrow;endArrow=classic;html=1;rounded=0;fontSize=12;startSize=8;endSize=8;curved=1;exitX=1;exitY=0.5;exitDx=0;exitDy=0;entryX=0.5;entryY=1;entryDx=0;entryDy=0;" edge="1" parent="1" source="zTI_1WKN3sGvDMDGRpj2-3" target="zTI_1WKN3sGvDMDGRpj2-5">
          <mxGeometry width="50" height="50" relative="1" as="geometry">
            <mxPoint x="765" y="1360" as="sourcePoint" />
            <mxPoint x="815" y="1310" as="targetPoint" />
          </mxGeometry>
        </mxCell>
        <mxCell id="zTI_1WKN3sGvDMDGRpj2-31" style="edgeStyle=none;curved=1;rounded=0;orthogonalLoop=1;jettySize=auto;html=1;fontSize=12;startSize=8;endSize=8;" edge="1" parent="1" source="zTI_1WKN3sGvDMDGRpj2-1" target="zTI_1WKN3sGvDMDGRpj2-14">
          <mxGeometry relative="1" as="geometry">
            <mxPoint x="579.9999999999998" y="1110" as="sourcePoint" />
          </mxGeometry>
        </mxCell>
        <mxCell id="zTI_1WKN3sGvDMDGRpj2-32" value="" style="shape=flexArrow;endArrow=classic;html=1;rounded=0;fontSize=12;startSize=8;endSize=8;curved=1;exitX=0;exitY=0.5;exitDx=0;exitDy=0;entryX=0.5;entryY=1;entryDx=0;entryDy=0;" edge="1" parent="1" source="zTI_1WKN3sGvDMDGRpj2-10" target="zTI_1WKN3sGvDMDGRpj2-4">
          <mxGeometry width="50" height="50" relative="1" as="geometry">
            <mxPoint x="650" y="1410" as="sourcePoint" />
            <mxPoint x="850" y="1280" as="targetPoint" />
          </mxGeometry>
        </mxCell>
        <mxCell id="zTI_1WKN3sGvDMDGRpj2-33" value="" style="shape=flexArrow;endArrow=classic;html=1;rounded=0;fontSize=12;startSize=8;endSize=8;curved=1;entryX=0.5;entryY=1;entryDx=0;entryDy=0;" edge="1" parent="1" target="zTI_1WKN3sGvDMDGRpj2-5">
          <mxGeometry width="50" height="50" relative="1" as="geometry">
            <mxPoint x="1040" y="1400" as="sourcePoint" />
            <mxPoint x="850" y="1280" as="targetPoint" />
          </mxGeometry>
        </mxCell>
        <mxCell id="zTI_1WKN3sGvDMDGRpj2-34" value="" style="shape=flexArrow;endArrow=classic;html=1;rounded=0;fontSize=12;startSize=8;endSize=8;curved=1;" edge="1" parent="1" source="zTI_1WKN3sGvDMDGRpj2-5" target="zTI_1WKN3sGvDMDGRpj2-13">
          <mxGeometry width="50" height="50" relative="1" as="geometry">
            <mxPoint x="925" y="1270" as="sourcePoint" />
            <mxPoint x="975" y="1220" as="targetPoint" />
          </mxGeometry>
        </mxCell>
        <mxCell id="zTI_1WKN3sGvDMDGRpj2-35" value="" style="shape=flexArrow;endArrow=classic;startArrow=classic;html=1;rounded=0;fontSize=12;startSize=8;endSize=8;curved=1;" edge="1" parent="1" source="zTI_1WKN3sGvDMDGRpj2-15" target="zTI_1WKN3sGvDMDGRpj2-5">
          <mxGeometry width="100" height="100" relative="1" as="geometry">
            <mxPoint x="640" y="1239.66" as="sourcePoint" />
            <mxPoint x="780" y="1239.66" as="targetPoint" />
          </mxGeometry>
        </mxCell>
        <mxCell id="zTI_1WKN3sGvDMDGRpj2-36" value="" style="group" connectable="0" vertex="1" parent="1">
          <mxGeometry x="320" y="1160" width="200" height="80" as="geometry" />
        </mxCell>
        <mxCell id="zTI_1WKN3sGvDMDGRpj2-37" value="몬스터 피격" style="rounded=1;whiteSpace=wrap;html=1;fontSize=16;" vertex="1" parent="zTI_1WKN3sGvDMDGRpj2-36">
          <mxGeometry y="10" width="120" height="60" as="geometry" />
        </mxCell>
        <mxCell id="zTI_1WKN3sGvDMDGRpj2-38" value="" style="html=1;points=[];perimeter=orthogonalPerimeter;outlineConnect=0;targetShapes=umlLifeline;portConstraint=eastwest;newEdgeStyle={&quot;edgeStyle&quot;:&quot;elbowEdgeStyle&quot;,&quot;elbow&quot;:&quot;vertical&quot;,&quot;curved&quot;:0,&quot;rounded&quot;:0};fontSize=16;" vertex="1" parent="zTI_1WKN3sGvDMDGRpj2-36">
          <mxGeometry x="120" width="10" height="80" as="geometry" />
        </mxCell>
        <mxCell id="zTI_1WKN3sGvDMDGRpj2-39" value="callback" style="html=1;verticalAlign=bottom;endArrow=block;edgeStyle=elbowEdgeStyle;elbow=vertical;curved=0;rounded=0;fontSize=12;startSize=8;endSize=8;" edge="1" parent="zTI_1WKN3sGvDMDGRpj2-36" target="zTI_1WKN3sGvDMDGRpj2-38">
          <mxGeometry relative="1" as="geometry">
            <mxPoint x="200" as="sourcePoint" />
          </mxGeometry>
        </mxCell>
        <mxCell id="zTI_1WKN3sGvDMDGRpj2-40" value="return" style="html=1;verticalAlign=bottom;endArrow=open;dashed=1;endSize=8;edgeStyle=elbowEdgeStyle;elbow=vertical;curved=0;rounded=0;fontSize=12;" edge="1" parent="zTI_1WKN3sGvDMDGRpj2-36" source="zTI_1WKN3sGvDMDGRpj2-38">
          <mxGeometry relative="1" as="geometry">
            <mxPoint x="200" y="75" as="targetPoint" />
          </mxGeometry>
        </mxCell>
      </root>
    </mxGraphModel>
  </diagram>
</mxfile>
